<svg width="260" height="200" viewBox="0 0 136 104" fill="none" xmlns="http://www.w3.org/2000/svg">
    <path fill-rule="evenodd" clip-rule="evenodd"
        d="M73.9354 75.2443C80.411 79.1475 86.7736 81.0333 89.7603 80.2635C97.2496 78.333 97.9382 50.9351 92.1433 40.1339C86.3485 29.3328 56.5583 24.625 55.0568 46.0255C54.5356 53.4529 57.6544 60.0814 62.2623 65.4901L54 104H78L73.9354 75.2443Z"
        fill="#B28B67" />
    <path fill-rule="evenodd" clip-rule="evenodd"
        d="M75.1353 48.3889C77.2112 45.2979 79.2043 42.9401 81.7968 41.571C92.3479 41.7377 93.5832 39.8462 93.5832 33.471C91.8791 32.2515 85.866 30.1982 79.1321 29.6206C75.6969 28.6375 71.6275 28.8224 67.7074 30.4622C62.8681 31.8352 58.7705 34.7923 56.9605 40.3283C50.4122 51.629 55.3824 63.3927 62.0804 67.4112C63.8633 65.2989 65.4192 63.2518 66.8076 61.2922C65.6923 60.2027 65 58.6822 65 57C65 53.6863 67.6863 51 71 51C71.2436 51 71.4839 51.0145 71.7199 51.0427C71.869 55.1858 72.4826 69.2027 74.0945 74.0715C75.9948 79.8116 87.0837 81.221 90.9513 81.221C94.2917 81.221 94.1779 78.0578 94.0963 75.7908C94.0845 75.4643 94.0734 75.1564 94.0734 74.8792C94.0734 74.3001 93.3202 74.3016 92.4691 74.3033C91.364 74.3055 90.094 74.308 90.094 73.0401C90.094 71.6579 92.004 70.5978 93.7131 69.6491C94.7795 69.0572 95.7676 68.5087 96.165 67.9525C97.4186 66.1977 97.8409 63.8311 95.9496 63.8311C94.9159 63.8311 93.4975 64.427 91.7911 65.144C89.2151 66.2264 85.9826 67.5847 82.4258 67.5847C76.55 67.5847 75.1526 48.6261 75.1353 48.3889Z"
        fill="#191847" />
</svg>