<svg width="260" height="200" viewBox="0 0 270 340" fill="none" xmlns="http://www.w3.org/2000/svg">
    <path fill-rule="evenodd" clip-rule="evenodd" d="M104.121 316.879C102.95 318.05 102.95 319.95 104.121 321.121L120.385 337.385C121.556 338.556 123.456 338.556 124.627 337.385L162.811 299.201C163.983 298.029 163.983 296.13 162.811 294.958C161.64 293.787 159.74 293.787 158.569 294.958L122.506 331.021L108.364 316.879C107.192 315.707 105.293 315.707 104.121 316.879Z" fill="#2B44FF" />
    <path fill-rule="evenodd" clip-rule="evenodd" d="M133.212 247.036C188.38 247.036 233.102 202.353 233.102 147.233C233.102 92.1139 188.38 47.4308 133.212 47.4308C78.0443 47.4308 33.322 92.1139 33.322 147.233C33.322 202.353 78.0443 247.036 133.212 247.036Z" fill="#AADDC7" />
    <mask id="mask0" mask-type="alpha" maskUnits="userSpaceOnUse" x="0" y="0" width="270" height="250">
        <path fill-rule="evenodd" clip-rule="evenodd" d="M133.212 247.036C178.991 247.036 217.577 216.268 229.385 174.301C231.807 165.693 269.366 137.312 269.366 127.931C269.366 72.8119 188.38 0.0334473 133.212 0.0334473C78.0443 0.0334473 -36.8978 223.325 11.7085 247.036C40.7397 261.197 59.7841 215.11 63.656 218.864C81.6411 236.301 106.172 247.036 133.212 247.036Z" fill="white" />
    </mask>
    <g mask="url(#mask0)">
        <path fill-rule="evenodd" clip-rule="evenodd" d="M138.093 58.5418C144.498 62.3987 150.79 64.2622 153.744 63.5014C161.151 61.5939 161.832 34.5208 156.101 23.8477C150.37 13.1747 120.907 8.52268 119.422 29.6694C118.907 37.0088 121.991 43.5587 126.548 48.9033L118.377 86.9565H142.113L138.093 58.5418Z" fill="#784931" />
        <path fill-rule="evenodd" clip-rule="evenodd" d="M155.383 17.8367C155.811 16.6058 158.725 12.7922 153.535 9.15902C152.602 8.50612 151.062 9.15688 149.727 8.74479C148.722 8.43473 148.384 7.03469 147.232 6.79044C146.038 6.53706 144.737 7.68547 143.387 7.58455C142.56 7.52271 141.283 6.23476 140.422 6.16538C138.885 6.04154 137.488 7.49131 135.987 7.58455C135.117 7.63861 134.107 6.2394 133.243 6.16538C131.14 5.98523 129.226 6.96452 127.373 7.2615C125.665 7.53522 124.871 11.0314 123.614 11.8577C119.667 14.4506 116.574 15.1756 113.371 17.8367C109.564 21.0003 108.835 23.3539 107.258 25.4619C105.681 27.57 104.706 34.9973 105.626 39.7573C106.169 42.5651 107.583 50.2333 110.741 53.2021C115.065 57.2657 123.861 58.4697 124.642 57.9276C128.258 55.4166 136.364 41.5285 142.113 36.6201C146.341 33.0108 152.735 25.4619 155.383 17.8367Z" fill="#FF9B21" />
        <mask id="mask1" mask-type="alpha" maskUnits="userSpaceOnUse" x="105" y="6" width="52" height="53">
            <path fill-rule="evenodd" clip-rule="evenodd" d="M155.383 17.8367C155.811 16.6058 158.725 12.7922 153.535 9.15902C152.602 8.50612 151.062 9.15688 149.727 8.74479C148.722 8.43473 148.384 7.03469 147.232 6.79044C146.038 6.53706 144.737 7.68547 143.387 7.58455C142.56 7.52271 141.283 6.23476 140.422 6.16538C138.885 6.04154 137.488 7.49131 135.987 7.58455C135.117 7.63861 134.107 6.2394 133.243 6.16538C131.14 5.98523 129.226 6.96452 127.373 7.2615C125.665 7.53522 124.871 11.0314 123.614 11.8577C119.667 14.4506 116.574 15.1756 113.371 17.8367C109.564 21.0003 108.835 23.3539 107.258 25.4619C105.681 27.57 104.706 34.9973 105.626 39.7573C106.169 42.5651 107.583 50.2333 110.741 53.2021C115.065 57.2657 123.861 58.4697 124.642 57.9276C128.258 55.4166 136.364 41.5285 142.113 36.6201C146.341 33.0108 152.735 25.4619 155.383 17.8367Z" fill="white" />
        </mask>
        <g mask="url(#mask1)">
            <path fill-rule="evenodd" clip-rule="evenodd" d="M130.774 33.2475C133.437 25.0794 138.276 4.68472 138.276 4.68472L135.353 4.9917C135.353 4.9917 133.038 18.0045 130.658 26.4344C128.483 34.1413 125.981 41.6976 124.014 47.6387C121.297 55.8468 119.6 60.9717 121.194 59.1505C121.385 58.9324 121.576 58.6786 121.767 58.3891C121.785 58.4277 121.813 58.4502 121.85 58.4561C121.737 58.6788 121.894 58.5783 122.362 58.1448L122.366 58.1411C125.091 55.6173 132.885 46.7249 141.048 31.9868C144.804 25.2046 151.694 8.0216 151.694 8.0216L148.958 6.85232C148.958 6.85232 144.407 20.4282 141.048 27.0112C135.14 38.5862 129.599 47.1937 125.996 52.4706C127.489 49.4934 129.247 45.5036 131.44 40.5268C132.405 38.3353 133.455 35.9525 134.603 33.3804C138.107 25.5352 145.053 5.75761 145.053 5.75761H142.113C142.113 5.75761 138.45 18.4574 135.201 26.5926C132.231 34.03 128.953 41.2836 126.375 46.9867L126.375 46.9868L126.375 46.9868C126.332 47.0833 126.288 47.1792 126.245 47.2747C126.895 45.3033 127.599 43.1065 128.375 40.6852C129.106 38.4048 129.901 35.9254 130.774 33.2475Z" fill="black" fill-opacity="0.2" />
        </g>
        <path fill-rule="evenodd" clip-rule="evenodd" d="M99.2337 168.972C101.017 193.29 215.9 264.885 216.57 266.894C217.017 268.233 180.812 351.559 180.812 351.559L190.854 355.458C190.854 355.458 246.387 267.21 243.535 257.806C239.451 244.344 154.399 169.231 154.399 169.231L99.2337 168.972Z" fill="#B28B67" />
        <path fill-rule="evenodd" clip-rule="evenodd" d="M183.454 339.014L199.85 344.977C234.424 306.002 247.975 273.844 245.504 257.46C243.034 241.075 156.676 169.032 156.676 169.032L98.0579 169.032C100.058 225.348 206.54 267.108 207.964 269.508C209.389 271.908 195.372 295.412 183.454 339.014Z" fill="#2F3676" />
        <path fill-rule="evenodd" clip-rule="evenodd" d="M112.443 168.972L61.2656 291.726L10.9662 395.504H22.8335L152.67 168.972H112.443Z" fill="#997659" />
        <path fill-rule="evenodd" clip-rule="evenodd" d="M15.5085 373.946L41.8776 378.886C62.2662 348.938 147.593 226.138 156.948 168.972H98.2447C67.0027 210.297 34.943 343.501 15.5085 373.946Z" fill="#5C63AB" />
        <path fill-rule="evenodd" clip-rule="evenodd" d="M237.29 126.19L201.454 141.914L212.897 156.561L239.736 136.001C253.142 133.541 259.359 131.427 258.388 129.66C257.569 128.171 256.044 128.087 254.641 128.009C253.547 127.949 252.526 127.893 251.969 127.179C250.696 125.549 253.838 120.515 257.025 115.865C260.211 111.215 257.224 111.383 255.476 111.939C249.63 115.189 243.568 119.94 237.29 126.19ZM76.8385 150.263L56.572 146.245C42.8273 182.44 34.633 202.275 31.9892 205.749C30.0504 208.297 18.0938 214.859 10.001 218.363C6.75258 219.77 7.45003 222.513 8.40277 223.39C14.4124 228.925 19.9992 226.985 26.0808 224.873C27.8414 224.262 29.6435 223.636 31.5093 223.173C36.3387 221.975 37.8083 224.456 39.1971 226.801C40.4268 228.877 41.5931 230.846 44.9719 230.06C44.8182 229.398 44.6294 228.656 44.4256 227.855C43.1085 222.676 41.166 215.04 44.0479 210.603C45.5268 208.326 56.457 188.212 76.8385 150.263Z" fill="#B28B67" />
        <path fill-rule="evenodd" clip-rule="evenodd" d="M131.921 70.4862L140.474 69.0206C159.101 87.0741 166.702 130.447 179.116 136.188C190.853 141.616 207.49 136.364 227.267 129.271L233.323 142.791C215.354 162.214 177.074 178.623 161.557 169.256C136.749 154.278 131.022 100.784 131.921 70.4862Z" fill="#1F28CF" />
        <path fill-rule="evenodd" clip-rule="evenodd" d="M94.6407 177.866C94.6407 177.866 146.077 177.866 170.311 177.866C173.769 177.866 173.118 172.877 172.618 170.36C166.849 141.308 144.33 109.992 144.33 68.6371L122.503 65.2174C104.449 94.2277 98.2059 129.945 94.6407 177.866Z" fill="#DDE3E9" />
        <path fill-rule="evenodd" clip-rule="evenodd" d="M121.344 65.2174H121.095C72.1373 95.3601 42.5501 142.086 32.333 205.394L48.1942 208.498C58.701 196.268 71.6673 176.253 87.0933 148.452C82.3605 165.199 78.9052 182.375 77.8275 198.617H145.943C159.129 165.322 129.737 65.2174 129.737 65.2174H125.034H121.344Z" fill="#2B44FF" />
    </g>
</svg>
