<svg width="260" height="200" viewBox="0 0 600 618" fill="none" xmlns="http://www.w3.org/2000/svg">
    <g opacity="0.504511">
    <path fill-rule="evenodd" clip-rule="evenodd" d="M555.535 446.046C562.986 508.519 382.285 549.268 226.751 520.83C71.217 492.393 -0.134628 381.341 74.0836 322.168C148.302 262.995 548.084 383.574 555.535 446.046Z" fill="#F2F2F2"/>
    </g>
    <path fill-rule="evenodd" clip-rule="evenodd" d="M331.999 185.721C334.81 183.311 339.172 184.847 342.003 186.269C343.093 186.817 345.88 188.571 347.948 190.545C347.674 189.177 347.431 187.797 347.218 186.405C346.343 180.684 345.741 174.854 345.452 169.058C345.376 167.546 345.474 165.858 345.574 164.146L345.574 164.146L345.574 164.146C345.608 163.566 345.641 162.984 345.669 162.405C345.556 162.269 345.479 162.08 345.447 161.824C345.435 161.93 345.428 162.015 345.423 162.08C345.415 162.187 345.411 162.239 345.395 162.243C345.38 162.246 345.354 162.202 345.302 162.113C345.282 162.078 345.258 162.036 345.229 161.988C343.137 158.48 341.38 154.528 341.139 150.183C340.935 146.498 343.635 139.525 347.462 144.352C349.175 146.507 348.73 161.647 346.158 162.574C346.845 167.591 347.709 172.599 348.791 177.544C348.953 177.512 349.119 177.509 349.282 177.534C349.267 176.304 349.265 174.963 349.31 174.502C349.695 170.528 352.655 162.461 357.367 164.028C360.988 165.231 358.769 170.186 357.536 172.355C355.553 175.846 353.309 177.358 350.468 179.174C350.411 179.924 349.979 180.361 349.47 180.502C351.373 188.487 353.872 196.275 357.144 203.632L357.231 203.164L357.231 203.164C357.646 200.931 358.13 198.328 358.437 197.781C360.04 194.919 363.59 191.424 366.863 193.117C373.737 196.678 366.276 206.914 360.423 208.027C360.18 208.404 359.922 208.707 359.649 208.881C360.786 211.102 362.001 213.276 363.301 215.395C365.252 218.581 367.348 221.757 369.545 224.914C369.613 222.445 370.482 216.94 370.729 216.348C372.23 212.757 376.555 209.061 380.064 211.612C384.011 214.489 380.432 219.926 378.181 222.386C377.258 223.395 372.695 227.091 371.085 227.108C376.394 234.554 382.254 241.872 388.212 248.926C387.718 245.768 387.073 237.072 387.145 236.107C387.515 231.125 390.434 223.156 396.186 225.098C401.765 226.979 399.297 235.257 397.387 239.203C396.23 241.591 394.63 244.017 392.701 245.683C392.354 245.983 391.899 246.228 391.446 246.473C390.899 246.768 390.354 247.062 389.997 247.451C389.68 247.799 389.582 248.197 389.485 248.593C389.383 249.01 389.282 249.424 388.923 249.77C392.143 253.565 395.385 257.282 398.581 260.895C400.089 262.6 401.624 264.273 403.175 265.924C404.023 265.529 405.233 266.048 405.17 267.396C405.16 267.591 405.12 267.76 405.066 267.915C406.241 269.141 407.423 270.358 408.615 271.563C408.588 271.212 408.596 270.717 408.65 270.034C407.792 271.403 407.828 269.409 407.856 267.889C407.865 267.352 407.874 266.874 407.842 266.624C407.715 265.648 407.552 264.681 407.389 263.715L407.389 263.715C407.041 261.652 406.695 259.595 406.712 257.466C406.749 252.947 409.301 245.371 414.671 248.062C419.608 250.532 417.811 257.23 415.949 261.43C414.77 264.087 413.156 266.46 411.47 268.731C411.17 269.137 410.836 269.686 410.506 270.229L410.505 270.229C410.015 271.036 409.532 271.831 409.174 272.127C413.758 276.737 418.45 281.211 423.142 285.685L423.143 285.686C425.245 287.69 427.347 289.694 429.439 291.711C429.53 291.268 429.605 290.829 429.67 290.419C429.539 290.585 429.361 290.662 429.133 290.647C429.072 290.307 428.984 289.857 428.878 289.315C427.586 282.706 423.65 262.574 434.307 266.476C442.114 269.343 436.603 286.872 430.78 293.004C434.314 296.428 437.814 299.895 441.232 303.466C443.706 306.05 446.106 308.722 448.415 311.483C447.221 307.908 446.095 303.279 446.834 299.595C447.91 294.234 452.951 289.173 457.872 292.223C464.008 296.042 459.288 301.258 454.861 306.15C452.601 308.647 450.418 311.06 449.795 313.159C457.135 322.217 463.402 332.281 467.589 343.744C472.143 356.21 476.371 372.96 474.033 386.907C474.464 380.775 472.618 373.075 471.321 367.667L471.321 367.665C471.145 366.929 470.978 366.236 470.829 365.595C468.881 357.208 466.113 349.047 462.466 341.409C456.624 329.176 448.907 318.792 439.997 309.364C437.968 310.157 435.765 311.626 433.94 312.842C432.821 313.588 431.844 314.239 431.137 314.581C427.728 316.232 421.183 318.597 419.011 313.399C416.876 308.287 422.326 305.428 425.704 304.283C428.968 303.177 431.911 303.31 434.956 304.217C430.241 299.525 425.41 294.982 420.581 290.439L420.58 290.439C419.691 289.603 418.803 288.768 417.915 287.931C416.687 289.061 415.331 290.694 413.891 292.428C409.322 297.931 403.908 304.45 399.073 299.124C391.776 291.085 405.731 282.915 411.677 283.553C412.407 283.631 413.113 283.804 413.802 284.039C407.738 278.262 401.769 272.367 396.124 266.058C395.11 266.265 393.498 267.938 391.56 269.948C387.206 274.465 381.212 280.683 376.697 275.787C373.437 272.253 374.553 266.748 377.704 263.601C380.867 260.44 385.452 260.445 389.35 261.51C391.035 261.967 392.589 262.841 394.038 263.907C394.07 263.909 394.1 263.911 394.131 263.913C394.16 263.914 394.189 263.916 394.218 263.918C388.663 257.643 383.073 251.228 377.69 244.594L377.546 244.646C377.499 244.663 377.451 244.68 377.403 244.698C377.078 245.145 376.533 245.309 376.034 245.21C375.759 245.316 375.478 245.425 375.191 245.536C370.927 247.188 365.446 249.311 361.196 248.395C358.068 247.721 355.23 244.867 357.878 241.354C360.031 238.496 365.871 238.907 368.719 239.583C370.108 239.914 371.622 240.872 373.14 241.833L373.14 241.834C373.778 242.238 374.416 242.642 375.047 243.001C375.211 242.63 375.497 242.391 375.823 242.277C370.507 235.61 365.434 228.713 360.834 221.516C359.441 221.758 357.897 222.444 356.304 223.152C352.471 224.856 348.357 226.685 345.405 222.747C341.046 216.931 349.243 213.537 353.14 214.09C354.456 214.276 355.753 214.694 357.006 215.247C353.658 209.322 351.101 202.988 349.305 196.336C349.287 196.346 349.271 196.356 349.255 196.366C349.23 196.382 349.205 196.398 349.174 196.414C349.201 196.397 349.224 196.38 349.248 196.363L349.248 196.363C349.266 196.35 349.283 196.338 349.302 196.325C349.123 195.66 348.951 194.991 348.787 194.32C348.482 194.13 348.198 193.99 348.062 193.933C349.832 195.303 342.363 195.973 340.964 196.099C337.872 196.376 333.729 196.479 331.461 193.636C329.555 191.248 329.667 187.719 331.999 185.721ZM474.365 386.927C474.233 388.948 473.908 390.798 473.3 392.325C473.756 390.587 474.105 388.781 474.365 386.927Z" fill="#F2F2F2"/>
    <path opacity="0.2" fill-rule="evenodd" clip-rule="evenodd" d="M191.592 56.6467C189.54 54.9059 186.355 56.0179 184.288 57.0473C183.491 57.4444 181.456 58.7137 179.946 60.1419C180.146 59.1524 180.324 58.1543 180.48 57.1481C181.12 53.0106 181.562 48.7949 181.775 44.6038C181.831 43.5106 181.76 42.2893 181.688 41.0519C181.663 40.6328 181.639 40.2118 181.619 39.7933C181.702 39.6944 181.758 39.5578 181.781 39.3729C181.79 39.4495 181.795 39.5111 181.798 39.5581C181.805 39.6349 181.808 39.673 181.819 39.6756C181.83 39.6781 181.849 39.6458 181.887 39.5814C181.902 39.5562 181.919 39.5262 181.941 39.4914C183.469 36.954 184.753 34.0952 184.931 30.9531C185.081 28.2884 183.112 23.2477 180.315 26.7395C179.064 28.299 179.384 39.2459 181.262 39.9157C180.758 43.5435 180.126 47.1652 179.334 50.741C179.216 50.7178 179.095 50.7158 178.976 50.734C178.987 49.8451 178.989 48.8751 178.956 48.5416C178.676 45.6687 176.518 39.8367 173.077 40.9712C170.433 41.8431 172.052 45.425 172.951 46.9926C174.398 49.5165 176.036 50.6088 178.11 51.9206C178.151 52.4631 178.466 52.7784 178.838 52.8807C177.446 58.6555 175.618 64.288 173.227 69.6087L173.164 69.2705C172.861 67.6561 172.509 65.7739 172.285 65.3786C171.115 63.31 168.525 60.7839 166.134 62.0097C161.114 64.5876 166.559 71.9856 170.831 72.7882C171.009 73.0608 171.197 73.28 171.396 73.4056C170.566 75.0118 169.677 76.5845 168.727 78.1168C167.302 80.4217 165.771 82.7191 164.166 85.0032C164.117 83.2173 163.484 79.2372 163.304 78.8096C162.209 76.213 159.052 73.5425 156.489 75.389C153.607 77.4708 156.218 81.4003 157.861 83.1784C158.534 83.9074 161.865 86.5785 163.04 86.5899C159.161 91.9762 154.881 97.2705 150.528 102.374C150.89 100.09 151.363 93.8014 151.311 93.1036C151.043 89.5014 148.914 83.7407 144.714 85.1471C140.639 86.5094 142.439 92.494 143.832 95.3465C144.676 97.0729 145.843 98.827 147.251 100.031C147.505 100.247 147.837 100.424 148.167 100.601C148.567 100.814 148.965 101.027 149.225 101.308C149.457 101.559 149.528 101.847 149.598 102.133C149.673 102.435 149.746 102.734 150.008 102.984C147.656 105.73 145.288 108.419 142.953 111.033C141.852 112.266 140.73 113.476 139.597 114.671C138.978 114.386 138.095 114.762 138.141 115.736C138.147 115.878 138.177 116 138.216 116.112C137.358 116.999 136.494 117.879 135.624 118.751C135.644 118.497 135.638 118.139 135.598 117.645C136.224 118.635 136.199 117.193 136.179 116.094L136.179 116.094C136.172 115.705 136.166 115.36 136.19 115.179C136.282 114.473 136.402 113.774 136.521 113.076L136.521 113.075C136.776 111.583 137.03 110.096 137.018 108.557C136.992 105.289 135.131 99.8118 131.21 101.76C127.604 103.548 128.914 108.391 130.272 111.426C131.132 113.347 132.309 115.063 133.54 116.704C133.759 116.997 134.003 117.394 134.244 117.787C134.602 118.371 134.954 118.945 135.215 119.159C131.867 122.494 128.439 125.731 125.012 128.968L125.012 128.969C123.476 130.419 121.941 131.869 120.412 133.328C120.346 133.008 120.291 132.691 120.244 132.394C120.34 132.514 120.469 132.57 120.636 132.559C120.681 132.313 120.745 131.988 120.823 131.596L120.823 131.596C121.768 126.816 124.649 112.257 116.867 115.083C111.165 117.159 115.183 129.833 119.433 134.264C116.852 136.741 114.295 139.25 111.798 141.833C109.991 143.703 108.237 145.636 106.55 147.634C107.424 145.048 108.248 141.7 107.709 139.037C106.926 135.161 103.247 131.503 99.6519 133.711C95.1708 136.475 98.6155 140.245 101.846 143.78C103.495 145.585 105.089 147.328 105.543 148.846C100.18 155.399 95.6015 162.678 92.5404 170.969C89.2112 179.985 86.119 192.099 87.8215 202.183C87.5083 197.749 88.8589 192.18 89.8074 188.269L89.8075 188.269C89.9366 187.736 90.0583 187.235 90.1673 186.771C91.5925 180.705 93.6161 174.803 96.2817 169.279C100.551 160.431 106.189 152.919 112.698 146.097C114.179 146.67 115.787 147.731 117.119 148.61L117.119 148.61C117.936 149.149 118.649 149.62 119.165 149.867C121.654 151.059 126.432 152.767 128.019 149.007C129.58 145.309 125.601 143.244 123.135 142.417C120.752 141.619 118.604 141.717 116.38 142.374C119.825 138.979 123.354 135.691 126.882 132.405L126.882 132.404C127.531 131.8 128.18 131.195 128.828 130.59C129.724 131.407 130.713 132.587 131.764 133.84C135.099 137.818 139.05 142.53 142.582 138.676C147.912 132.86 137.725 126.958 133.384 127.422C132.851 127.479 132.335 127.604 131.833 127.774C136.261 123.595 140.622 119.33 144.746 114.765C145.486 114.914 146.663 116.123 148.076 117.576C151.254 120.84 155.629 125.334 158.927 121.792C161.308 119.235 160.495 115.255 158.196 112.98C155.887 110.696 152.539 110.702 149.693 111.473C148.463 111.805 147.328 112.438 146.269 113.209C146.246 113.21 146.224 113.211 146.202 113.213C146.18 113.214 146.159 113.216 146.138 113.217C150.196 108.677 154.279 104.036 158.212 99.2365C158.28 99.261 158.351 99.2861 158.421 99.3117C158.659 99.6352 159.057 99.7533 159.421 99.6816C159.622 99.7579 159.827 99.8366 160.036 99.9168C163.149 101.109 167.15 102.642 170.253 101.978C172.537 101.49 174.611 99.425 172.679 96.8855C171.108 94.8202 166.844 95.1193 164.764 95.6099C163.749 95.8496 162.644 96.543 161.535 97.2388C161.069 97.5311 160.603 97.8239 160.142 98.0835C160.023 97.8154 159.814 97.6432 159.576 97.5607C163.46 92.7377 167.166 87.7481 170.527 82.542C171.544 82.7165 172.671 83.2123 173.834 83.7236C176.632 84.9541 179.635 86.2746 181.792 83.4257C184.976 79.2188 178.992 76.768 176.147 77.169C175.186 77.3043 174.239 77.6074 173.324 78.0077C175.77 73.7217 177.639 69.1408 178.953 64.3301C178.966 64.3373 178.977 64.3446 178.989 64.3519C179.008 64.3634 179.026 64.375 179.049 64.386C179.029 64.3741 179.012 64.3617 178.994 64.3493C178.982 64.3402 178.969 64.331 178.955 64.3222C179.086 63.8409 179.212 63.3574 179.332 62.8723C179.554 62.7346 179.762 62.6333 179.861 62.5916C178.568 63.5829 184.022 64.0646 185.043 64.1548C187.301 64.3538 190.325 64.427 191.983 62.37C193.375 60.6422 193.295 58.0908 191.592 56.6467ZM87.4833 201.785C87.5831 203.132 87.8794 204.361 88.4627 205.368C88.0345 204.217 87.7133 203.018 87.4833 201.785Z" fill="#C1DEE2"/>
    <g opacity="0.7">
    <path fill-rule="evenodd" clip-rule="evenodd" d="M369.822 261.77C383.474 261.062 400.359 269.031 401.815 283.871C402.873 294.653 402.545 305.405 404.183 316.172C405.492 324.776 408.261 333.036 412.038 340.874C415.67 348.411 423.203 354.827 425.162 362.879C426.411 368.01 425.712 375.227 423.99 380.245C421.896 386.347 423.009 385.865 427.182 390.985C435.359 401.018 442.723 411.307 447.93 423.29C455.43 440.55 460.348 460.725 457.564 479.618C457.21 482.017 456.79 490.627 453.486 491.229C449.796 491.902 451.522 486.978 451.719 485.387C452.974 475.238 454.089 466.367 452.575 456.059C446.732 416.288 418.201 390.085 399.623 356.331C398.602 354.59 396.446 350.445 394.947 347.711C392.58 343.393 390.201 335.179 386.997 331.977C380.963 325.947 386.511 338.071 387.686 340.385C389.173 343.313 390.808 346.425 392.332 348.99C399.302 360.882 407.082 373.862 414.28 386.121C383.147 393.214 361.221 355.785 352.866 331.178C345.982 310.905 337.746 263.505 369.822 261.77" fill="#69A1AC"/>
    <path fill-rule="evenodd" clip-rule="evenodd" d="M552.805 224.121C529.983 225.932 515.331 240.992 508.511 262.056C504.835 273.407 504.413 285.068 502.37 296.734C499.298 314.284 492.686 327.585 479.764 340.089C475.762 343.961 472.812 347.937 470.716 352.191C466.554 356.438 462.931 361.244 460.269 367.12C456.869 374.624 455.907 383.628 459.832 391.109C460.888 393.121 463.521 397.158 466.25 398.992C456.033 420.752 450.415 444.584 451.048 468.386C451.431 482.753 452.132 497.127 452.951 511.477C453.171 515.33 454.426 521.693 456.31 515.231C458.035 509.32 455.872 500.041 455.672 493.867C454.698 463.786 453.866 436.435 466.248 408.331C467.547 405.385 468.924 402.463 470.357 399.565C470.442 399.516 470.52 399.457 470.599 399.4C470.653 399.442 470.703 399.487 470.758 399.529C470.849 399.365 470.975 399.171 471.121 398.954C471.532 398.529 471.891 397.993 472.233 397.395C473.331 395.873 474.574 394.084 474.581 393.105C474.581 393.098 474.577 393.086 474.577 393.078C482.242 380.565 491.022 368.742 499.99 357.149C499.923 357.234 509.718 343.897 508.204 351.272C507.474 354.827 500.269 361.595 497.359 365.36C490.922 373.735 483.363 384.348 477.082 394.61C476.237 395.096 475.043 397.48 474.179 399.257C473.702 400.157 473.257 401.064 472.82 401.855C495.077 409.208 512.39 394.396 524.196 377.168C524.21 377.147 524.223 377.126 524.236 377.106C527.829 372.346 531.509 367.619 536.107 363.856C543.777 357.576 551.992 356.468 561.036 353.378C585.7 344.951 596.186 312.987 599.516 289.27C603.274 262.513 584.894 221.483 552.805 224.121" fill="#89C5CC"/>
    <path fill-rule="evenodd" clip-rule="evenodd" d="M507.723 149.191C484.299 173.569 472.982 207.383 464.022 239.172C454.014 274.676 447.403 310.728 447.149 347.642C446.983 371.895 446.323 396.299 447.739 420.523C448.241 429.126 449.099 437.745 450.462 446.255C450.575 446.955 453.626 465.958 456.545 461.53C458.205 459.012 453.417 441.817 453.056 438.953C451.021 422.822 450.548 406.573 450.647 390.326C450.81 363.575 450.022 336.962 452.733 310.31C453.137 306.33 453.457 302.151 454.402 298.258C455.406 294.119 454.127 295.926 457.396 294.287C460.573 292.695 464.498 292.922 467.794 290.924C480.866 282.997 487.553 262.635 492.758 249.275C498.711 233.998 502.329 217.706 505.219 201.628C507.341 189.816 508.858 178.075 509.716 166.11C509.987 162.339 510.003 158.396 510.744 154.688C510.944 153.688 511.945 151.919 511.909 151.033C511.832 149.158 510.701 148.056 510.608 146.481C509.627 147.363 508.665 148.267 507.723 149.191" fill="#89C5CC"/>
    <path fill-rule="evenodd" clip-rule="evenodd" d="M380 474C380 514.317 412.683 547 453 547C493.317 547 526 514.317 526 474" fill="#89C5CC"/>
    <path fill-rule="evenodd" clip-rule="evenodd" d="M503.028 410.085C521.095 408.753 541.271 423.329 549.986 438.497C557.012 450.726 555.828 466.785 551.489 479.778C548.583 488.476 542.241 500.878 531.665 500.999C518.433 501.15 517.795 484.796 517.539 475.236C517.199 462.525 515.593 451.453 505.577 442.789C504.341 441.72 503.043 440.719 501.746 439.718C500.594 438.829 499.443 437.941 498.334 437.005C498.157 436.855 497.978 436.706 497.8 436.556C494.258 433.579 490.539 430.453 490.086 425.546C489.43 418.436 493.443 417.156 499.571 418.477C499.769 418.52 500.306 418.723 501.036 419C504.166 420.186 510.844 422.718 509.581 419.692C509.105 418.552 507.368 417.648 505.175 416.971C499.501 416.354 492.733 415.638 490.787 416.066C469.792 420.672 461.617 449.755 459.446 468.233C459.212 470.227 459.023 472.228 458.857 474.232H455C455.268 469.393 455.621 464.562 456.43 459.776C459.525 441.473 469.2 414.591 490.42 411.62C491.203 411.51 494.083 411.491 497.571 411.696C499.224 410.772 501.076 410.213 503.028 410.085Z" fill="#69A1AC"/>
    </g>
    <g opacity="0.5">
    <path fill-rule="evenodd" clip-rule="evenodd" d="M200.223 128.445C204.425 122.453 212.224 107.235 218.138 105.094C221.948 103.715 220.837 117.98 220.884 120.7C221.067 131.224 220.043 141.681 218.778 152.116C216.498 170.937 209.045 187.697 198.822 203.715C193.562 211.957 187.391 220.3 178.845 225.442C174.912 227.811 170.179 228.207 166.294 230.248C161.769 232.623 164.233 230.703 162.194 235.417C159.363 241.963 158.457 250.408 157.147 257.392C151.132 289.455 136.568 458.945 139.093 491.558C139.317 494.449 135.287 495.14 135.085 491.611C134.016 472.9 143.27 343.322 147.94 300.947C152.609 258.571 157.334 221.135 162.071 206.474C167.819 188.687 178.199 167.298 186.84 150.711C190.854 143.006 195.229 135.565 200.223 128.445Z" fill="#69A1AC"/>
    <path fill-rule="evenodd" clip-rule="evenodd" d="M231.414 336.278C242.349 328.25 254.186 343.401 244.29 351.43C238.82 355.868 233.101 354.29 229.882 350.591C227.792 353.139 225.836 355.803 223.956 358.052C218.229 364.909 212.817 371.928 207.644 379.111C196.898 394.035 187.689 409.801 178.06 425.278C168.558 440.554 159.132 455.908 150.519 471.571C143.223 484.841 133.498 500.452 131 515C134.79 484.146 149.172 454.49 166.298 427.291C183.285 400.314 202.779 370.853 229.081 349.564C226.404 345.627 226.33 340.008 231.414 336.278Z" fill="#C1DEE2"/>
    <path fill-rule="evenodd" clip-rule="evenodd" d="M23.9132 261.031C30.0324 262.227 40.0312 276.07 45.0753 281.344C51.0699 287.612 56.5084 294.292 61.6349 301.292C72.6711 316.358 82.5411 332.376 90.9339 349.08C104.616 376.311 115.578 404.265 123.533 433.918C128.403 452.069 131.556 470.883 133.424 489.565C133.777 493.089 137.471 520.253 132.148 520.985C127.361 521.644 128.84 500.359 128.609 497.463C125.998 464.798 118.177 433.015 107.299 402.226C104.929 395.519 102.728 387.304 98.9381 381.268C96.2092 376.921 98.9186 378.437 94.1228 376.792C90.0049 375.378 85.3131 375.724 81.0963 373.993C71.9356 370.237 64.6006 362.944 58.1709 355.608C45.6758 341.351 35.774 325.928 30.6126 307.66C27.7495 297.532 25.1184 287.344 23.6583 276.902C23.2806 274.203 19.9718 260.26 23.9132 261.031Z" fill="#69A1AC"/>
    <path fill-rule="evenodd" clip-rule="evenodd" d="M48.0614 30.716C71.1113 70.6904 90.0528 114.601 102.283 159.076C109.694 186.023 114.876 213.675 120.025 241.126C127.997 283.632 135.538 326.134 137.683 369.395C139.841 412.906 144.108 463.092 129.861 505C136.978 462.452 130.202 417.162 129.002 374.35C128.429 353.912 126.768 333.674 124.588 313.355C122.473 293.645 119.018 274.029 115.801 254.474C114.234 244.95 112.588 235.441 110.912 225.937C110.411 223.101 110.2 214.687 108.401 212.75C106.591 210.8 97.3543 210.005 94.4544 208.574C88.6149 205.693 83.1221 201.6 78.2609 197.275C68.9418 188.984 60.8347 178.151 54.4359 167.472C39.6307 142.764 33.7116 112.61 34.0108 83.9942C34.0682 78.4382 43.0034 18.61 39.4149 17.7861C39.631 17.533 39.8353 17.2718 40.028 17C42.7448 21.5488 45.4108 26.1284 48.0614 30.716Z" fill="#89C5CC"/>
    <path fill-rule="evenodd" clip-rule="evenodd" d="M296.846 174.887C297.202 174.374 299.517 170.807 298.351 171.035C300.724 170.57 295.087 174.969 301 172.27C298.192 174.922 299.813 178.366 299.85 181.935C299.911 187.73 298.942 193.476 297.851 199.146C296.126 208.109 293.557 216.823 289.828 225.159C281.701 243.326 267.901 260.814 251.518 272.172C243.43 277.779 235.504 279.689 226.28 282.27C220.453 283.901 219.991 286.915 216.898 292.569C210.46 304.345 204.136 316.078 198.457 328.251C191.677 342.788 185.095 357.34 178.886 372.132C157.969 421.957 140.945 473.578 132.005 527C131.786 495.519 139.069 463.095 148.255 433.088C154.947 411.226 163.658 390.151 172.95 369.29C175.201 364.236 178.613 357.735 179.57 352.155C180.239 348.245 178.192 344.486 177.255 340.367C173.601 324.33 173.863 306.363 177.071 290.24C180.609 272.461 190.839 264.209 208.145 261.691C214.474 260.769 222.519 261.107 228.322 258.408C234.645 255.47 237.253 245.81 240.849 239.61C250.506 222.953 261.98 206.979 275.155 192.945C278.803 189.059 282.726 185.473 286.888 182.15C289.513 180.053 295.058 177.47 296.846 174.887Z" fill="#89C5CC"/>
    <path fill-rule="evenodd" clip-rule="evenodd" d="M97.845 498.729C97.3997 495.71 99.7396 493 102.791 493H164.209C167.26 493 169.6 495.71 169.155 498.729L164.408 530.918C162.961 540.73 154.541 548 144.622 548H122.378C112.459 548 104.039 540.73 102.592 530.918L97.845 498.729Z" fill="#C1DEE2"/>
    </g>
    <path fill-rule="evenodd" clip-rule="evenodd" d="M47.4177 509.456C47.4177 530.743 49.0976 548 71.6456 548C94.1935 548 95.8734 530.743 95.8734 509.456" fill="#F2F2F2"/>
    <path fill-rule="evenodd" clip-rule="evenodd" d="M78.3534 496.174C77.5269 497.603 76.79 499.061 76.139 500.54C76.116 497.493 76.2845 494.424 76.7446 491.313C77.531 485.983 78.7322 480.682 79.8609 475.388C80.6721 471.584 80.6208 464.752 83.6994 461.72C84.5436 461.065 84.7468 462.351 84.7468 462.908C84.7575 463.026 84.7445 460.632 83.9251 461.049C79.0544 463.564 77.4763 471.474 75.9169 475.434C73.6418 481.215 71.7061 487.124 70.909 493.138C70.7076 494.657 70.598 496.176 70.5727 497.692C70.4071 497.287 70.2516 496.878 70.0796 496.474C67.2684 489.881 63.4747 483.447 58.7431 477.514C57.5784 476.054 42.9342 461.649 41.7878 463.854C41.9009 464.174 42.1377 464.44 42.4988 464.651C42.52 464.675 42.5206 464.662 42.5083 464.626C43.3683 466.016 45.8137 468.161 46.5754 469.379C48.4923 472.442 49.9821 475.693 51.4961 478.882C54.6948 485.622 57.6621 492.429 60.5386 499.25C61.2084 500.839 61.9065 502.419 62.6187 503.994C55.2769 493.405 45.4826 483.791 32 478.287C36.6049 480.63 39.624 485.037 42.7339 488.412C46.4846 492.483 50.4351 496.444 54.1929 500.51C58.6253 505.307 63.8405 510.358 68.1038 515.666C72.2333 524.336 76.2462 533.015 78.7234 542.128C77.7084 538.98 78.6438 534.628 78.4701 531.324C78.3322 528.693 78.0247 526.084 77.6035 523.48C78.1243 524.655 78.5731 525.83 78.7764 526.924C78.5908 525.09 78.377 523.268 78.1472 521.455C78.7369 519.758 79.316 518.175 79.7072 516.87C81.7118 510.179 84.0988 503.602 87.3495 497.193C90.3574 491.264 93.8077 485.41 97.5673 479.735C99.321 477.089 101.099 474.453 102.866 471.812C104.022 470.083 105.123 467.316 106.733 465.659C96.3261 475.174 84.956 484.757 78.3534 496.174" fill="#F2F2F2"/>
    <path fill-rule="evenodd" clip-rule="evenodd" d="M569.633 123.827C566.65 113.876 559.646 106.087 552.374 98.9511C538.22 85.0582 530.607 76.4684 525.562 56.1457C522.595 44.1934 519.575 31.5277 510.165 22.8562C503.313 16.5414 491.521 11.2359 482.357 15.7577C468.261 24.1717 464.475 41.4386 465.897 56.9001C467.659 76.0635 476.61 87.8797 493.807 94.938C503.497 98.9133 509.938 104.159 515.198 113.299C519.405 120.607 521.858 129.759 527.145 136.384C535.05 146.289 544.941 150.691 557.134 149.046C545.714 128.035 532.371 106.826 516.278 89.1352C514.771 87.3567 505.886 80.5492 507.678 77.5181C509.652 74.1807 518.774 86.7176 518.709 86.6418C523.386 92.0103 527.714 97.7152 531.963 103.475C531.953 103.48 531.94 103.484 531.928 103.489C536.304 109.4 540.644 115.397 544.902 121.469C546.624 124.038 548.3 126.639 549.905 129.306C552.259 133.219 555.996 144.325 559.849 146.731C560.673 147.245 561.436 147.533 562.148 147.651C564.777 151.956 567.335 156.295 569.768 160.685C576.121 172.151 581.574 184.257 584.076 197.202C584.807 200.981 584.29 215.114 586.869 217.842C591.584 222.831 590.203 213.223 589.921 210.323C587.579 186.31 578.958 165.852 566.441 145.664C570.286 140.642 570.841 127.859 569.633 123.827" fill="#F2F2F2"/>
    <path fill-rule="evenodd" clip-rule="evenodd" d="M408.131 135.43C413.102 129.573 425.052 128.579 432.361 128.971C441.404 129.456 450.694 131.658 459.298 134.32C473.471 138.704 487.244 146.706 499.727 154.451C501.231 155.384 519.764 166.529 518.124 168.485C516.498 170.423 498.305 157.184 494.25 154.902C485.597 150.032 477.662 144.272 468.124 141.055C458.249 137.724 447.805 136.405 437.42 136.496C436.087 136.508 431.74 135.579 431.646 137.551C431.554 139.479 438.748 138.473 440.016 138.485C445.255 138.533 450.527 139.026 455.691 139.934C465.368 141.635 474.465 145.061 482.753 150.317C480.44 155.694 474.897 158.173 469.081 156.828C464.055 155.664 459.156 152.796 454.234 151.966C450.845 151.395 447.451 151.735 444.164 152.69C435.494 155.209 430.494 160.371 420.961 156.781C413.489 153.966 400.991 143.853 408.131 135.43" fill="#F2F2F2"/>
    <path fill-rule="evenodd" clip-rule="evenodd" d="M386.753 41.0513C375.714 40.2462 363.388 49.0557 358.063 58.2232C353.771 65.6147 354.494 75.3207 357.145 83.1734C358.921 88.4307 362.795 95.9263 369.257 95.9994C377.341 96.0908 377.73 86.2066 377.887 80.4283C378.095 72.7462 379.076 66.054 385.195 60.8177C385.95 60.1715 386.743 59.5664 387.536 58.9614C388.239 58.4243 388.943 57.8873 389.62 57.3217C389.728 57.2313 389.837 57.1408 389.946 57.0501C392.11 55.251 394.383 53.3615 394.659 50.3961C395.06 46.0986 392.608 45.3252 388.864 46.1236C388.743 46.1493 388.415 46.2724 387.969 46.4397C386.057 47.1566 381.977 48.6865 382.749 46.8577C383.039 46.1686 384.101 45.6225 385.441 45.2134C388.907 44.8405 393.042 44.4078 394.231 44.6663C407.058 47.4502 412.052 65.0278 413.379 76.1957C413.529 77.4603 413.649 78.7292 413.753 80H416.105C415.94 77.0154 415.726 74.0357 415.221 71.0845C413.331 60.0223 407.42 43.7749 394.455 41.9794C393.977 41.9125 392.217 41.9012 390.086 42.0249C389.076 41.4665 387.945 41.1289 386.753 41.0513Z" fill="#F2F2F2"/>
    <path fill-rule="evenodd" clip-rule="evenodd" d="M315.362 435.668C332.123 447.115 348.59 452.646 356.321 450.388C375.705 444.727 377.487 364.377 362.489 332.7C347.49 301.024 270.386 287.217 266.5 349.978C265.151 371.761 273.223 391.2 285.149 407.062L263.765 520H325.882L315.362 435.668Z" fill="#B28B67"/>
    <path fill-rule="evenodd" clip-rule="evenodd" d="M318.468 356.91C323.841 347.844 328.999 340.93 335.709 336.915C363.018 337.404 366.215 331.856 366.215 313.16C361.805 309.584 346.241 303.562 328.812 301.868C319.921 298.985 309.389 299.527 299.243 304.336C286.717 308.363 276.112 317.035 271.427 333.27C254.479 366.412 267.343 400.911 284.679 412.696C289.293 406.501 293.32 400.498 296.914 394.751C294.027 391.556 292.235 387.097 292.235 382.163C292.235 372.445 299.188 364.567 307.765 364.567C308.395 364.567 309.017 364.61 309.628 364.692C310.014 376.843 311.602 417.95 315.774 432.228C320.692 449.062 349.393 453.196 359.403 453.196C368.049 453.196 367.755 443.919 367.543 437.271C367.513 436.313 367.484 435.41 367.484 434.597C367.484 432.899 365.535 432.903 363.332 432.908C360.472 432.915 357.184 432.922 357.184 429.204C357.184 425.15 362.128 422.041 366.552 419.259C369.312 417.523 371.869 415.915 372.898 414.283C376.142 409.137 377.235 402.196 372.34 402.196C369.665 402.196 365.994 403.944 361.577 406.047C354.91 409.221 346.543 413.205 337.337 413.205C322.13 413.205 318.513 357.609 318.468 356.91Z" fill="#191847"/>
    </svg>
